#!OML:ASF H:\Dans Jumps\Project 1\Capture day 1\Session 1\subject.ASF
:FULLY-SPECIFIED
:DEGREES
287
root 0.38531 15.9616 -13.6475 20.5799 1.00375 -2.22055
lowerback 16.0945 0.323746 -0.134008
upperback 0.863842 0.646181 2.84673
thorax -8.15362 0.373748 2.98814
lowerneck -21.1196 -0.310363 -2.63243
upperneck 15.5843 0.493803 -0.573607
head 8.30557 0.00844604 0.297783
rclavicle -8.34896e-015 -5.1684e-015
rhumerus -30.3632 -22.0098 -71.6399
rradius 21.0836
rwrist 33.7241
rhand -20.507 -26.6275
rfingers 7.12502
rthumb 5.85032 -56.5267
lclavicle -8.34896e-015 -5.1684e-015
lhumerus -27.5693 17.4044 77.3018
lradius 11.1247
lwrist -6.77739
lhand -25.6231 -4.81533
lfingers 7.12502
lthumb 0.909729 25.1625
rfemur -47.5276 0.528406 21.8463
rtibia 59.5917
rfoot -32.1041 -18.2874
rtoes 3.64212
lfemur -47.4395 1.43713 -17.1773
ltibia 59.078
lfoot -26.8798 21.5635
ltoes -9.91026
288
root 0.374626 15.8816 -13.6168 21.2 1.06063 -2.34077
lowerback 16.4013 0.383856 -0.127638
upperback 0.585506 0.745766 2.92694
thorax -8.635 0.429438 3.0544
lowerneck -21.5673 -0.351641 -2.64584
upperneck 15.3641 0.455728 -0.582601
head 8.30734 -0.00980422 0.29157
rclavicle 6.16232e-015 -7.55382e-015
rhumerus -29.5586 -22.2126 -71.833
rradius 21.0139
rwrist 33.8399
rhand -20.6756 -26.5065
rfingers 7.12502
rthumb 5.68755 -56.4102
lclavicle 6.16232e-015 -7.55382e-015
lhumerus -26.7923 19.2872 76.8411
lradius 10.6224
lwrist -9.23708
lhand -25.4826 -4.96842
lfingers 7.12502
lthumb 1.04542 25.0088
rfemur -48.6856 0.658999 22.0101
rtibia 60.734
rfoot -32.2401 -18.5151
rtoes 3.87646
lfemur -48.6646 1.4769 -17.0155
ltibia 60.3279
lfoot -27.0387 21.7188
ltoes -9.60584
289
root 0.363575 15.8004 -13.5816 21.7586 1.10231 -2.44728
lowerback 16.6883 0.443236 -0.14202
upperback 0.348862 0.839035 2.99853
thorax -9.06201 0.482134 3.12366
lowerneck -21.9984 -0.382887 -2.65048
upperneck 15.0949 0.427482 -0.591899
head 8.28911 -0.0222567 0.284984
rclavicle -4.96962e-015 -2.94201e-014
rhumerus -28.665 -22.4557 -72.0557
rradius 20.9156
rwrist 34.2118
rhand -20.887 -26.3772
rfingers 7.12502
rthumb 5.48346 -56.2863
lclavicle -4.96962e-015 -2.94201e-014
lhumerus -25.9742 21.3695 76.3728
lradius 10.1384
lwrist -11.8387
lhand -25.3667 -5.12933
lfingers 7.12502
lthumb 1.15737 24.8473
rfemur -49.7566 0.801946 22.1551
rtibia 61.866
rfoot -32.3677 -18.7939
rtoes 4.10623
lfemur -49.7919 1.52928 -16.8694
ltibia 61.5585
lfoot -27.2138 21.9116
ltoes -9.42649
290
root 0.352121 15.7192 -13.5413 22.2418 1.12665 -2.53154
lowerback 16.9607 0.499438 -0.182883
upperback 0.153132 0.920861 3.05797
thorax -9.43743 0.529682 3.19669
lowerneck -22.403 -0.403011 -2.6516
upperneck 14.788 0.411531 -0.599776
head 8.25297 -0.0279981 0.279861
rclavicle -1.78906e-015 1.15295e-014
rhumerus -27.6777 -22.7182 -72.3275
rradius 20.8
rwrist 34.7593
rhand -21.1071 -26.3051
rfingers 7.12502
rthumb 5.27091 -56.2196
lclavicle -1.78906e-015 1.15295e-014
lhumerus -24.7826 21.8571 76.8035
lradius 9.68855
lwrist -12.5314
lhand -25.5165 -5.08781
lfingers 7.12502
lthumb 1.01276 24.8895
rfemur -50.7149 0.942648 22.2786
rtibia 62.9763
rfoot -32.4952 -19.155
rtoes 4.23006
lfemur -50.791 1.59092 -16.7495
ltibia 62.7537
lfoot -27.4192 22.1553
ltoes -9.43161
